<svg xmlns="http://www.w3.org/2000/svg" width="280" height="280" viewBox="0 0 280 280" role="img" aria-label="Placeholder QR code">
  <rect width="280" height="280" fill="#f4f1e8"/>
  <rect x="20" y="20" width="240" height="240" fill="#fff" stroke="#2f4a3a" stroke-width="4"/>
  <rect x="40" y="40" width="60" height="60" fill="#2f4a3a"/>
  <rect x="52" y="52" width="36" height="36" fill="#fff"/>
  <rect x="60" y="60" width="20" height="20" fill="#2f4a3a"/>
  <rect x="180" y="40" width="60" height="60" fill="#2f4a3a"/>
  <rect x="192" y="52" width="36" height="36" fill="#fff"/>
  <rect x="200" y="60" width="20" height="20" fill="#2f4a3a"/>
  <rect x="40" y="180" width="60" height="60" fill="#2f4a3a"/>
  <rect x="52" y="192" width="36" height="36" fill="#fff"/>
  <rect x="60" y="200" width="20" height="20" fill="#2f4a3a"/>
  <rect x="120" y="40" width="16" height="16" fill="#2f4a3a"/>
  <rect x="144" y="40" width="16" height="16" fill="#2f4a3a"/>
  <rect x="120" y="64" width="16" height="16" fill="#2f4a3a"/>
  <rect x="144" y="88" width="16" height="16" fill="#2f4a3a"/>
  <rect x="120" y="112" width="40" height="16" fill="#2f4a3a"/>
  <rect x="40" y="120" width="16" height="16" fill="#2f4a3a"/>
  <rect x="64" y="120" width="16" height="16" fill="#2f4a3a"/>
  <rect x="88" y="144" width="16" height="16" fill="#2f4a3a"/>
  <rect x="120" y="144" width="16" height="16" fill="#2f4a3a"/>
  <rect x="160" y="120" width="16" height="16" fill="#2f4a3a"/>
  <rect x="184" y="144" width="16" height="16" fill="#2f4a3a"/>
  <rect x="208" y="120" width="16" height="16" fill="#2f4a3a"/>
  <rect x="232" y="144" width="16" height="16" fill="#2f4a3a"/>
  <rect x="120" y="180" width="16" height="16" fill="#2f4a3a"/>
  <rect x="144" y="204" width="16" height="16" fill="#2f4a3a"/>
  <rect x="168" y="180" width="40" height="16" fill="#2f4a3a"/>
  <rect x="200" y="204" width="16" height="16" fill="#2f4a3a"/>
  <rect x="224" y="228" width="16" height="16" fill="#2f4a3a"/>
  <rect x="168" y="228" width="16" height="16" fill="#2f4a3a"/>
  <text x="140" y="155" text-anchor="middle" font-family="Georgia, serif" font-size="14" fill="#8a6a2f">PLACEHOLDER</text>
</svg>
